<svg width="185" height="185" viewBox="0 0 185 185" fill="none" xmlns="http://www.w3.org/2000/svg">
<rect x="0.5" y="29" width="184" height="156" rx="20" fill="#E8F0FB"/>
<circle cx="92.5" cy="34.5" r="34.5" fill="#0050EA"/>
<path d="M82.5 45.5L103.5 24.5" stroke="white" stroke-width="2" stroke-linecap="round" stroke-linejoin="round"/>
<path d="M86.4375 24.5H103.5V41.5625" stroke="white" stroke-width="2" stroke-linecap="round" stroke-linejoin="round"/>
<path d="M87.6116 103.2V120H85.2596V115.104H80.6276C80.3396 115.104 80.1236 115.096 79.9796 115.08L76.6196 120H74.0756L77.7956 114.672C76.5956 114.272 75.6756 113.608 75.0356 112.68C74.3956 111.736 74.0756 110.592 74.0756 109.248C74.0756 107.344 74.6836 105.864 75.8996 104.808C77.1316 103.736 78.7876 103.2 80.8676 103.2H87.6116ZM76.4996 109.224C76.4996 110.472 76.8596 111.432 77.5796 112.104C78.3156 112.76 79.3956 113.088 80.8196 113.088H85.2596V105.288H80.9636C79.5236 105.288 78.4196 105.624 77.6516 106.296C76.8836 106.968 76.4996 107.944 76.4996 109.224ZM98.0516 112.416H104.508V114.408H98.0516V112.416ZM67.7817 143.28V156H49.6617V143.28H51.9657V153.984H57.5817V143.28H59.8857V153.984H65.4777V143.28H67.7817ZM84.0634 143.28V154.272C84.0634 156.496 83.5434 158.136 82.5034 159.192C81.4634 160.264 79.9034 160.8 77.8234 160.8C76.6874 160.8 75.5994 160.632 74.5594 160.296C73.5354 159.976 72.6954 159.512 72.0394 158.904L73.1674 157.128C73.7274 157.64 74.3994 158.04 75.1834 158.328C75.9834 158.616 76.8234 158.76 77.7034 158.76C79.0954 158.76 80.1194 158.408 80.7754 157.704C81.4314 157.016 81.7594 155.952 81.7594 154.512V153.576C81.2954 154.184 80.6954 154.656 79.9594 154.992C79.2234 155.312 78.4234 155.472 77.5594 155.472C75.8634 155.472 74.5274 155.008 73.5514 154.08C72.5754 153.152 72.0874 151.776 72.0874 149.952V143.28H74.3914V149.688C74.3914 150.904 74.6874 151.832 75.2794 152.472C75.8714 153.096 76.7194 153.408 77.8234 153.408C79.0394 153.408 79.9994 153.04 80.7034 152.304C81.4074 151.568 81.7594 150.528 81.7594 149.184V143.28H84.0634ZM93.4416 150.624H90.8016V156H88.4976V143.28H90.8016V148.656H93.4896L97.6176 143.28H100.09L95.2656 149.4L100.426 156H97.7136L93.4416 150.624ZM114.372 143.28V156H112.164V153.984C111.652 154.688 111.004 155.224 110.22 155.592C109.436 155.96 108.572 156.144 107.628 156.144C106.396 156.144 105.292 155.872 104.316 155.328C103.34 154.784 102.572 154.024 102.012 153.048C101.468 152.056 101.196 150.92 101.196 149.64C101.196 148.36 101.468 147.232 102.012 146.256C102.572 145.28 103.34 144.52 104.316 143.976C105.292 143.432 106.396 143.16 107.628 143.16C108.54 143.16 109.38 143.336 110.148 143.688C110.916 144.024 111.556 144.528 112.068 145.2V143.28H114.372ZM107.82 154.128C108.62 154.128 109.348 153.944 110.004 153.576C110.66 153.192 111.172 152.664 111.54 151.992C111.908 151.304 112.092 150.52 112.092 149.64C112.092 148.76 111.908 147.984 111.54 147.312C111.172 146.624 110.66 146.096 110.004 145.728C109.348 145.36 108.62 145.176 107.82 145.176C107.004 145.176 106.268 145.36 105.612 145.728C104.972 146.096 104.46 146.624 104.076 147.312C103.708 147.984 103.524 148.76 103.524 149.64C103.524 150.52 103.708 151.304 104.076 151.992C104.46 152.664 104.972 153.192 105.612 153.576C106.268 153.944 107.004 154.128 107.82 154.128ZM130.035 143.16C131.267 143.16 132.371 143.44 133.347 144C134.323 144.544 135.091 145.312 135.651 146.304C136.211 147.28 136.491 148.392 136.491 149.64C136.491 150.888 136.211 152.008 135.651 153C135.091 153.976 134.323 154.744 133.347 155.304C132.371 155.864 131.267 156.144 130.035 156.144C128.915 156.144 127.899 155.912 126.987 155.448C126.075 154.984 125.323 154.336 124.731 153.504C124.155 152.656 123.795 151.696 123.651 150.624H121.083V156H118.779V143.28H121.083V148.488H123.675C123.835 147.432 124.203 146.504 124.779 145.704C125.371 144.888 126.115 144.264 127.011 143.832C127.923 143.384 128.931 143.16 130.035 143.16ZM130.035 154.128C130.819 154.128 131.523 153.944 132.147 153.576C132.787 153.208 133.291 152.688 133.659 152.016C134.027 151.328 134.211 150.536 134.211 149.64C134.211 148.76 134.027 147.984 133.659 147.312C133.291 146.624 132.787 146.096 132.147 145.728C131.523 145.36 130.819 145.176 130.035 145.176C129.251 145.176 128.539 145.36 127.899 145.728C127.259 146.096 126.755 146.624 126.387 147.312C126.035 147.984 125.859 148.76 125.859 149.64C125.859 150.536 126.035 151.328 126.387 152.016C126.755 152.688 127.259 153.208 127.899 153.576C128.539 153.944 129.251 154.128 130.035 154.128Z" fill="black"/>
</svg>
