<svg width="120" height="83" viewBox="0 0 120 83" fill="none" xmlns="http://www.w3.org/2000/svg">
<path d="M43.3228 17.441L59.9998 4.46997L76.6769 17.441V37.8241C76.6769 38.807 76.2864 39.7496 75.5914 40.4446C74.8964 41.1397 73.9538 41.5301 72.9709 41.5301H47.0288C46.0459 41.5301 45.1032 41.1397 44.4082 40.4446C43.7132 39.7496 43.3228 38.807 43.3228 37.8241V17.441Z" stroke="black" stroke-width="3.70601" stroke-linecap="round" stroke-linejoin="round"/>
<path d="M54.4409 41.5301V23H65.559V41.5301" stroke="black" stroke-width="3.70601" stroke-linecap="round" stroke-linejoin="round"/>
<path d="M1.97297 58.6601H8.28497C9.77297 58.6601 10.917 58.7721 11.717 58.9961C12.533 59.2041 13.109 59.5481 13.445 60.0281C13.781 60.4921 13.949 61.1481 13.949 61.9961V63.9161C13.949 64.3481 13.773 64.7561 13.421 65.1401C13.085 65.5241 12.685 65.7881 12.221 65.9321V66.0521C12.829 66.1161 13.381 66.3801 13.877 66.8441C14.389 67.2921 14.645 67.7961 14.645 68.3561V70.7561C14.645 72.0201 14.141 72.9161 13.133 73.4441C12.125 73.9721 10.565 74.2361 8.45297 74.2361H1.97297V58.6601ZM8.28497 64.9961C8.87697 64.9961 9.31697 64.9481 9.60497 64.8521C9.89297 64.7561 10.085 64.6041 10.181 64.3961C10.293 64.1721 10.349 63.8521 10.349 63.4361V62.6681C10.349 62.3001 10.301 62.0281 10.205 61.8521C10.109 61.6601 9.90897 61.5241 9.60497 61.4441C9.31697 61.3641 8.85297 61.3241 8.21297 61.3241H5.71697V64.9961H8.28497ZM8.38097 71.5721C9.29297 71.5721 9.94097 71.4681 10.325 71.2601C10.709 71.0521 10.901 70.7161 10.901 70.2521V69.0041C10.901 68.4281 10.749 68.0201 10.445 67.7801C10.157 67.5401 9.63697 67.4201 8.88497 67.4201H5.71697V71.5721H8.38097ZM20.3513 74.4761C19.2633 74.4761 18.4473 74.3801 17.9033 74.1881C17.3753 73.9801 16.9993 73.6201 16.7753 73.1081C16.5673 72.5801 16.4633 71.7961 16.4633 70.7561C16.4633 69.8281 16.5753 69.1001 16.7993 68.5721C17.0393 68.0441 17.4153 67.6681 17.9273 67.4441C18.4553 67.2041 19.1753 67.0841 20.0873 67.0841H24.0233V66.2921C24.0233 65.7961 23.9513 65.4281 23.8073 65.1881C23.6793 64.9481 23.4313 64.7801 23.0633 64.6841C22.7113 64.5881 22.1753 64.5401 21.4553 64.5401C20.4633 64.5401 19.1033 64.6361 17.3753 64.8281V62.6201C18.6393 62.4601 20.1193 62.3801 21.8153 62.3801C23.3033 62.3801 24.4473 62.4921 25.2473 62.7161C26.0633 62.9401 26.6473 63.3241 26.9993 63.8681C27.3513 64.4121 27.5273 65.2041 27.5273 66.2441V74.2361H24.0953V73.1801C23.8233 73.6441 23.4553 73.9721 22.9913 74.1641C22.5273 74.3721 21.6473 74.4761 20.3513 74.4761ZM21.7193 72.2921C22.4233 72.2921 22.9273 72.2681 23.2313 72.2201C23.4553 72.1881 23.6073 72.1401 23.6873 72.0761C23.7833 72.0121 23.8633 71.9081 23.9273 71.7641C23.9913 71.6521 24.0233 71.4841 24.0233 71.2601V69.0041H21.6233C21.0793 69.0041 20.6953 69.0441 20.4713 69.1241C20.2473 69.1881 20.0953 69.3321 20.0153 69.5561C19.9353 69.7641 19.8953 70.1401 19.8953 70.6841C19.8953 71.2121 19.9353 71.5801 20.0153 71.7881C20.0953 71.9961 20.2473 72.1321 20.4713 72.1961C20.7113 72.2601 21.1273 72.2921 21.7193 72.2921ZM36.2742 74.4761C35.6662 74.4761 35.1862 74.4601 34.8342 74.4281C34.4822 74.4121 34.0502 74.3721 33.5382 74.3081C33.0262 74.2441 32.6022 74.1321 32.2662 73.9721C31.9462 73.8121 31.6102 73.5721 31.2582 73.2521C30.6022 72.7081 30.2742 71.7801 30.2742 70.4681V66.6041C30.2742 65.5481 30.5142 64.6681 30.9942 63.9641C31.1702 63.7081 31.4262 63.4761 31.7622 63.2681C32.1142 63.0441 32.4662 62.8681 32.8182 62.7401C33.1062 62.6441 33.4902 62.5641 33.9702 62.5001C34.4502 62.4361 34.8742 62.3961 35.2422 62.3801H36.5142C37.4102 62.3801 38.5862 62.5241 40.0422 62.8121V65.1161C38.3942 64.7321 37.1302 64.5401 36.2502 64.5401C34.6342 64.5401 33.8262 65.0841 33.8262 66.1721V70.4441C33.8262 71.6761 34.7142 72.2921 36.4902 72.2921C37.3542 72.2921 38.5942 72.1161 40.2102 71.7641V74.0681C38.7542 74.3401 37.4422 74.4761 36.2742 74.4761ZM42.1883 57.4361H45.6923V74.2361H42.1883V57.4361ZM45.8363 67.7081L49.6523 62.6201H53.6603L49.6283 67.6841L53.9963 74.2361H50.0363L45.8363 67.7081Z" fill="black"/>
<path d="M55.2933 58.6601H59.0373V64.9001H65.6613V58.6601H69.4053V74.2361H65.6613V67.5641H59.0373V74.2361H55.2933V58.6601ZM78.1782 74.4761C77.4582 74.4761 76.8662 74.4521 76.4022 74.4041C75.9382 74.3561 75.4422 74.2601 74.9142 74.1161C74.3382 73.9561 73.8742 73.7321 73.5222 73.4441C73.1702 73.1401 72.8742 72.7161 72.6342 72.1721C72.3942 71.6441 72.2742 71.0041 72.2742 70.2521V66.8201C72.2742 66.0521 72.3942 65.3801 72.6342 64.8041C72.8742 64.2281 73.1862 63.7801 73.5702 63.4601C73.9062 63.1881 74.3462 62.9641 74.8902 62.7881C75.4502 62.5961 75.9942 62.4761 76.5222 62.4281C77.1302 62.3961 77.6822 62.3801 78.1782 62.3801C78.9142 62.3801 79.4982 62.4041 79.9302 62.4521C80.3782 62.4841 80.8662 62.5801 81.3942 62.7401C81.9702 62.9161 82.4342 63.1561 82.7862 63.4601C83.1542 63.7641 83.4662 64.1961 83.7222 64.7561C83.9622 65.3321 84.0822 66.0201 84.0822 66.8201V70.2521C84.0822 70.9721 83.9622 71.6041 83.7222 72.1481C83.4982 72.6921 83.2022 73.1161 82.8342 73.4201C82.5142 73.6921 82.0742 73.9161 81.5142 74.0921C80.9702 74.2521 80.4342 74.3561 79.9062 74.4041C79.4262 74.4521 78.8502 74.4761 78.1782 74.4761ZM78.1782 72.2921C78.8342 72.2921 79.3302 72.2441 79.6662 72.1481C80.0022 72.0361 80.2342 71.8681 80.3622 71.6441C80.5062 71.4201 80.5782 71.0921 80.5782 70.6601V66.2681C80.5782 65.6281 80.4102 65.1801 80.0742 64.9241C79.7382 64.6681 79.1062 64.5401 78.1782 64.5401C77.2502 64.5401 76.6182 64.6681 76.2822 64.9241C75.9462 65.1801 75.7782 65.6281 75.7782 66.2681V70.6601C75.7782 71.0921 75.8422 71.4201 75.9702 71.6441C76.1142 71.8681 76.3542 72.0361 76.6902 72.1481C77.0262 72.2441 77.5222 72.2921 78.1782 72.2921ZM86.8133 62.6201H90.3173V64.0361C90.5413 62.9321 91.6853 62.3801 93.7493 62.3801C94.8373 62.3801 95.6613 62.5241 96.2213 62.8121C96.7813 63.0841 97.1573 63.5161 97.3493 64.1081C97.5413 63.5001 97.9093 63.0601 98.4533 62.7881C99.0133 62.5161 99.8533 62.3801 100.973 62.3801C101.981 62.3801 102.757 62.5001 103.301 62.7401C103.845 62.9641 104.221 63.3161 104.429 63.7961C104.653 64.2761 104.765 64.9161 104.765 65.7161V74.2361H101.261V66.1961C101.261 65.6841 101.229 65.3241 101.165 65.1161C101.101 64.8921 100.957 64.7401 100.733 64.6601C100.525 64.5801 100.157 64.5401 99.6293 64.5401C98.9733 64.5401 98.5013 64.5801 98.2133 64.6601C97.9413 64.7401 97.7573 64.8921 97.6613 65.1161C97.5813 65.3241 97.5413 65.6841 97.5413 66.1961V74.2361H94.0373V66.1961C94.0373 65.6841 94.0053 65.3241 93.9413 65.1161C93.8773 64.8921 93.7333 64.7401 93.5093 64.6601C93.3013 64.5801 92.9333 64.5401 92.4053 64.5401C91.7493 64.5401 91.2773 64.5801 90.9893 64.6601C90.7173 64.7401 90.5333 64.8921 90.4373 65.1161C90.3573 65.3241 90.3173 65.6841 90.3173 66.1961V74.2361H86.8133V62.6201ZM113.669 74.4761C109.557 74.4761 107.501 73.2201 107.501 70.7081V66.5321C107.501 65.0761 107.965 64.0201 108.893 63.3641C109.837 62.7081 111.285 62.3801 113.237 62.3801C115.077 62.3801 116.421 62.7001 117.269 63.3401C118.133 63.9641 118.565 65.0281 118.565 66.5321V69.3641H111.029V70.4201C111.029 71.0921 111.269 71.5721 111.749 71.8601C112.229 72.1481 113.093 72.2921 114.341 72.2921C115.493 72.2921 116.789 72.1241 118.229 71.7881V74.0201C116.805 74.3241 115.285 74.4761 113.669 74.4761ZM115.229 67.3721V65.6921C115.229 65.3081 115.069 65.0201 114.749 64.8281C114.445 64.6361 113.925 64.5401 113.189 64.5401C112.341 64.5401 111.773 64.6361 111.485 64.8281C111.181 65.0361 111.029 65.3241 111.029 65.6921V67.3721H115.229Z" fill="#0050EA"/>
</svg>
