<svg width="185" height="185" viewBox="0 0 185 185" fill="none" xmlns="http://www.w3.org/2000/svg">
<rect x="0.5" y="29" width="184" height="156" rx="20" fill="#E8F0FB"/>
<circle cx="92.5" cy="34.5" r="34.5" fill="#0050EA"/>
<path d="M82.5 45.5L103.5 24.5" stroke="white" stroke-width="2" stroke-linecap="round" stroke-linejoin="round"/>
<path d="M86.4375 24.5H103.5V41.5625" stroke="white" stroke-width="2" stroke-linecap="round" stroke-linejoin="round"/>
<path d="M90.8343 103.2V120H88.4823V115.104H83.8503C83.5623 115.104 83.3463 115.096 83.2023 115.08L79.8423 120H77.2983L81.0183 114.672C79.8183 114.272 78.8983 113.608 78.2583 112.68C77.6183 111.736 77.2983 110.592 77.2983 109.248C77.2983 107.344 77.9063 105.864 79.1223 104.808C80.3543 103.736 82.0103 103.2 84.0903 103.2H90.8343ZM79.7223 109.224C79.7223 110.472 80.0823 111.432 80.8023 112.104C81.5383 112.76 82.6183 113.088 84.0423 113.088H88.4823V105.288H84.1863C82.7463 105.288 81.6423 105.624 80.8743 106.296C80.1063 106.968 79.7223 107.944 79.7223 109.224ZM101.274 112.416H107.73V114.408H101.274V112.416ZM36.939 149.4C38.587 149.816 39.411 150.848 39.411 152.496C39.411 153.616 38.987 154.48 38.139 155.088C37.307 155.696 36.059 156 34.395 156H28.275V143.28H34.179C35.683 143.28 36.859 143.568 37.707 144.144C38.555 144.704 38.979 145.504 38.979 146.544C38.979 147.216 38.795 147.8 38.427 148.296C38.075 148.776 37.579 149.144 36.939 149.4ZM30.531 148.752H33.987C34.867 148.752 35.531 148.592 35.979 148.272C36.443 147.952 36.675 147.488 36.675 146.88C36.675 145.664 35.779 145.056 33.987 145.056H30.531V148.752ZM34.227 154.224C35.187 154.224 35.907 154.072 36.387 153.768C36.867 153.464 37.107 152.992 37.107 152.352C37.107 151.696 36.883 151.208 36.435 150.888C36.003 150.568 35.315 150.408 34.371 150.408H30.531V154.224H34.227ZM48.4652 156.144C47.2012 156.144 46.0652 155.864 45.0572 155.304C44.0492 154.744 43.2572 153.976 42.6812 153C42.1212 152.008 41.8412 150.888 41.8412 149.64C41.8412 148.392 42.1212 147.28 42.6812 146.304C43.2572 145.312 44.0492 144.544 45.0572 144C46.0652 143.44 47.2012 143.16 48.4652 143.16C49.7292 143.16 50.8572 143.44 51.8492 144C52.8572 144.544 53.6412 145.312 54.2012 146.304C54.7772 147.28 55.0652 148.392 55.0652 149.64C55.0652 150.888 54.7772 152.008 54.2012 153C53.6412 153.976 52.8572 154.744 51.8492 155.304C50.8572 155.864 49.7292 156.144 48.4652 156.144ZM48.4652 154.128C49.2812 154.128 50.0092 153.944 50.6492 153.576C51.3052 153.192 51.8172 152.664 52.1852 151.992C52.5532 151.304 52.7372 150.52 52.7372 149.64C52.7372 148.76 52.5532 147.984 52.1852 147.312C51.8172 146.624 51.3052 146.096 50.6492 145.728C50.0092 145.36 49.2812 145.176 48.4652 145.176C47.6492 145.176 46.9132 145.36 46.2572 145.728C45.6172 146.096 45.1052 146.624 44.7212 147.312C44.3532 147.984 44.1692 148.76 44.1692 149.64C44.1692 150.52 44.3532 151.304 44.7212 151.992C45.1052 152.664 45.6172 153.192 46.2572 153.576C46.9132 153.944 47.6492 154.128 48.4652 154.128ZM69.2184 143.28V156H66.9144V145.296H61.4424L61.2984 148.128C61.2184 149.84 61.0664 151.272 60.8424 152.424C60.6184 153.56 60.2504 154.472 59.7384 155.16C59.2264 155.848 58.5144 156.192 57.6024 156.192C57.1864 156.192 56.7144 156.12 56.1864 155.976L56.3304 154.032C56.5384 154.08 56.7304 154.104 56.9064 154.104C57.5464 154.104 58.0264 153.824 58.3464 153.264C58.6664 152.704 58.8744 152.04 58.9704 151.272C59.0664 150.504 59.1544 149.408 59.2344 147.984L59.4504 143.28H69.2184ZM79.1214 156.144C77.8574 156.144 76.7214 155.864 75.7134 155.304C74.7054 154.744 73.9134 153.976 73.3374 153C72.7774 152.008 72.4974 150.888 72.4974 149.64C72.4974 148.392 72.7774 147.28 73.3374 146.304C73.9134 145.312 74.7054 144.544 75.7134 144C76.7214 143.44 77.8574 143.16 79.1214 143.16C80.3854 143.16 81.5134 143.44 82.5054 144C83.5134 144.544 84.2974 145.312 84.8574 146.304C85.4334 147.28 85.7214 148.392 85.7214 149.64C85.7214 150.888 85.4334 152.008 84.8574 153C84.2974 153.976 83.5134 154.744 82.5054 155.304C81.5134 155.864 80.3854 156.144 79.1214 156.144ZM79.1214 154.128C79.9374 154.128 80.6654 153.944 81.3054 153.576C81.9614 153.192 82.4734 152.664 82.8414 151.992C83.2094 151.304 83.3934 150.52 83.3934 149.64C83.3934 148.76 83.2094 147.984 82.8414 147.312C82.4734 146.624 81.9614 146.096 81.3054 145.728C80.6654 145.36 79.9374 145.176 79.1214 145.176C78.3054 145.176 77.5694 145.36 76.9134 145.728C76.2734 146.096 75.7614 146.624 75.3774 147.312C75.0094 147.984 74.8254 148.76 74.8254 149.64C74.8254 150.52 75.0094 151.304 75.3774 151.992C75.7614 152.664 76.2734 153.192 76.9134 153.576C77.5694 153.944 78.3054 154.128 79.1214 154.128ZM89.0484 143.28H91.3524V148.68H98.6004V143.28H100.904V156H98.6004V150.672H91.3524V156H89.0484V143.28ZM121.296 143.16C122.896 143.16 124.16 143.624 125.088 144.552C126.032 145.48 126.504 146.856 126.504 148.68V156H124.2V148.944C124.2 147.712 123.912 146.784 123.336 146.16C122.776 145.536 121.968 145.224 120.912 145.224C119.744 145.224 118.816 145.592 118.128 146.328C117.44 147.048 117.096 148.088 117.096 149.448V156H114.792V148.944C114.792 147.712 114.504 146.784 113.928 146.16C113.368 145.536 112.56 145.224 111.504 145.224C110.336 145.224 109.408 145.592 108.72 146.328C108.032 147.048 107.688 148.088 107.688 149.448V156H105.384V143.28H107.592V145.176C108.056 144.52 108.664 144.024 109.416 143.688C110.168 143.336 111.024 143.16 111.984 143.16C112.976 143.16 113.856 143.36 114.624 143.76C115.392 144.16 115.984 144.744 116.4 145.512C116.88 144.776 117.544 144.2 118.392 143.784C119.256 143.368 120.224 143.16 121.296 143.16ZM136.291 154.128C137.811 154.128 139.035 153.616 139.963 152.592L141.211 154.08C140.651 154.752 139.939 155.264 139.075 155.616C138.227 155.968 137.275 156.144 136.219 156.144C134.875 156.144 133.683 155.872 132.643 155.328C131.603 154.768 130.795 153.992 130.219 153C129.659 152.008 129.379 150.888 129.379 149.64C129.379 148.408 129.651 147.296 130.195 146.304C130.755 145.312 131.515 144.544 132.475 144C133.451 143.44 134.547 143.16 135.763 143.16C136.915 143.16 137.963 143.424 138.907 143.952C139.851 144.464 140.603 145.192 141.163 146.136C141.723 147.08 142.011 148.168 142.027 149.4L131.923 151.368C132.243 152.248 132.779 152.928 133.531 153.408C134.299 153.888 135.219 154.128 136.291 154.128ZM135.763 145.104C134.963 145.104 134.243 145.288 133.603 145.656C132.979 146.024 132.491 146.544 132.139 147.216C131.787 147.872 131.611 148.64 131.611 149.52V149.76L139.747 148.224C139.539 147.296 139.075 146.544 138.355 145.968C137.635 145.392 136.771 145.104 135.763 145.104ZM151.346 143.16C152.626 143.16 153.754 143.432 154.73 143.976C155.722 144.52 156.482 145.288 157.01 146.28C157.554 147.256 157.826 148.384 157.826 149.664C157.826 150.928 157.562 152.056 157.034 153.048C156.506 154.024 155.77 154.784 154.826 155.328C153.882 155.872 152.802 156.144 151.586 156.144C150.626 156.144 149.762 155.976 148.994 155.64C148.226 155.288 147.586 154.784 147.074 154.128V160.656H144.746V149.688C144.746 148.408 145.018 147.272 145.562 146.28C146.122 145.288 146.898 144.52 147.89 143.976C148.898 143.432 150.05 143.16 151.346 143.16ZM151.274 154.128C152.09 154.128 152.826 153.944 153.482 153.576C154.138 153.192 154.642 152.664 154.994 151.992C155.362 151.304 155.546 150.528 155.546 149.664C155.546 148.8 155.362 148.032 154.994 147.36C154.642 146.672 154.138 146.136 153.482 145.752C152.842 145.368 152.106 145.176 151.274 145.176C150.01 145.176 148.986 145.592 148.202 146.424C147.418 147.24 147.026 148.312 147.026 149.64C147.026 150.52 147.202 151.304 147.554 151.992C147.922 152.664 148.426 153.192 149.066 153.576C149.706 153.944 150.442 154.128 151.274 154.128Z" fill="black"/>
</svg>
